<?xml version="1.0" encoding="UTF-8"?>
<svg width="244px" height="71px" viewBox="0 0 244 71" version="1.1" xmlns="http://www.w3.org/2000/svg" xmlns:xlink="http://www.w3.org/1999/xlink">
    <title>GroupBy_vector_RGB (1) Copy</title>
    <defs>
        <polygon id="path-1" points="0.0238743455 0.0159550562 75.7666283 0.0159550562 75.7666283 71 0.0238743455 71"></polygon>
    </defs>
    <g id="Page-1" stroke="none" stroke-width="1" fill="none" fill-rule="evenodd">
        <g id="Artboard" transform="translate(-376.000000, -39.000000)">
            <g id="GroupBy_vector_RGB-(1)-Copy" transform="translate(376.000000, 39.000000)">
                <g id="Group-4">
                    <mask id="mask-2" fill="white">
                        <use xlink:href="#path-1"></use>
                    </mask>
                    <g id="Clip-2"></g>
                    <path d="M75.2885445,19.5788483 L39.0082932,0.291578652 C38.3047958,-0.0821685393 37.4620314,-0.0821685393 36.7581361,0.291578652 L26.013089,6.00388764 L29.969466,8.10716292 C30.6085026,8.44700562 31.3740733,8.44700562 32.012712,8.10716292 L37.8834136,4.98635393 L66.8314555,20.3758034 L59.9393298,24.039882 L63.8953089,26.1431573 C64.5343455,26.483 65.2999162,26.483 65.9389529,26.1431573 L75.2885445,21.1727584 C75.9259895,20.8337135 75.9259895,19.9178933 75.2885445,19.5788483" id="Fill-1" fill="#FFFFFF" mask="url(#mask-2)"></path>
                    <path d="M39.2689215,66.0611124 C27.917466,66.0611124 20.9469529,61.7887472 20.9469529,58.7253764 L20.9469529,55.9603652 C25.1333194,58.7644663 31.6621571,60.504764 39.2689215,60.504764 C46.8760838,60.504764 53.4045236,58.7644663 57.5908901,55.9603652 L57.5908901,58.7253764 C57.5908901,61.7887472 50.6207749,66.0611124 39.2689215,66.0611124 Z M39.2689215,50.0095281 C46.8760838,50.0095281 53.4045236,48.2692303 57.5908901,45.4647303 L57.5908901,48.2301404 C57.5908901,51.2935112 50.6207749,55.5658764 39.2689215,55.5658764 C27.917466,55.5658764 20.9469529,51.2935112 20.9469529,48.2301404 L20.9469529,45.4647303 C25.1333194,48.2692303 31.6621571,50.0095281 39.2689215,50.0095281 Z M57.5908901,35.5446742 L57.5908901,37.7349045 C57.5908901,40.7978764 50.6207749,45.0706404 39.2689215,45.0706404 C27.917466,45.0706404 20.9469529,40.7978764 20.9469529,37.7349045 L20.9469529,32.0545056 L36.7581361,40.4600281 C37.4620314,40.8341742 38.3047958,40.8341742 39.0082932,40.4600281 L50.6943874,34.2475281 L46.7682513,32.1602079 C46.1105131,31.8107921 45.3222618,31.8107921 44.6645236,32.1602079 L37.8834136,35.7652528 L8.93537173,20.3758034 L16.7681466,16.2115337 L12.8121675,14.1082584 C12.1731309,13.7688146 11.4075602,13.7688146 10.7685236,14.1082584 L0.478282723,19.5788483 C-0.159560209,19.9178933 -0.159560209,20.8337135 0.478282723,21.1727584 L16.0200838,29.4350843 L16.0200838,58.7253764 C16.0200838,65.723264 26.0150785,71 39.2689215,71 C52.5231623,71 62.5181571,65.723264 62.5181571,58.7253764 L62.5181571,31.5052528 L58.8454869,33.4557584 C58.0735497,33.8654045 57.5908901,34.6691404 57.5908901,35.5446742 L57.5908901,35.5446742 Z" id="Fill-3" fill="#FFFFFF" mask="url(#mask-2)"></path>
                </g>
                <path d="M107.388532,36.6363904 C107.796311,37.0397648 108,37.5291238 108,38.1044673 L108,47.9051192 C108,48.5097846 107.847233,49.0494664 107.5417,49.5241644 C107.235766,49.9992586 106.834804,50.3519141 106.340016,50.5821308 C103.077787,52.1944398 99.7429832,53 96.3352045,53 C93.3348035,53 90.670008,52.3454081 88.340016,51.0354317 C86.0092221,49.7258516 84.2036889,47.8983831 82.9222133,45.5522337 C81.6403368,43.2064805 81,40.5369975 81,37.5429923 C81,34.4923244 81.6696071,31.7863872 83.0096231,29.425973 C84.3492382,27.0663514 86.1772253,25.2380904 88.4927827,23.942775 C90.80834,22.6474596 93.3785084,22 96.2040898,22 C98.4759423,22 100.463913,22.2738033 102.167602,22.8202211 C103.871692,23.3674315 105.510024,24.1305937 107.082999,25.1085192 C107.315557,25.2238257 107.519647,25.4255129 107.694467,25.7131846 C107.869286,26.0012526 107.956295,26.3174538 107.956295,26.6629769 C107.956295,27.1527322 107.788693,27.5695788 107.453889,27.9151019 C107.119086,28.2602288 106.67482,28.4329903 106.121492,28.4329903 C105.800722,28.4329903 105.494787,28.3616668 105.20409,28.2170384 C103.834804,27.4118745 102.465918,26.807209 101.097434,26.4038346 C99.7277466,26.0012526 98.2425822,25.7991692 96.6411387,25.7991692 C94.4270249,25.7991692 92.4318364,26.2599987 90.6555734,27.1808653 C88.8785084,28.1025244 87.4879711,29.4477663 86.4831596,31.2177798 C85.478348,32.9881894 84.9759423,35.0969898 84.9759423,37.5429923 C84.9759423,39.7881 85.4490778,41.7958586 86.3957498,43.5658721 C87.3420209,45.3362817 88.7113071,46.7326388 90.5024058,47.754151 C92.2939054,48.7760593 94.4129912,49.2868154 96.8592622,49.2868154 C99.5966319,49.2868154 102.14595,48.6540167 104.505213,47.3868345 L104.505213,39.572148 L97.2963111,39.572148 C96.8007217,39.572148 96.3789094,39.3997827 96.0292702,39.0542596 C95.6796311,38.7087365 95.5048115,38.2918898 95.5048115,37.8021346 C95.5048115,37.3131719 95.6796311,36.8955327 96.0292702,36.5500096 C96.3789094,36.2044865 96.8007217,36.0321212 97.2963111,36.0321212 L105.903368,36.0321212 C106.485565,36.0321212 106.980353,36.2338084 107.388532,36.6363904" id="Fill-5" fill="#FFFFFF"></path>
                <path d="M123.452877,30.5445678 C123.817224,30.9079976 124,31.3552661 124,31.8856044 C124,32.4167118 123.809993,32.8493663 123.430783,33.1847216 C123.051573,33.5200769 122.569928,33.68737 121.986651,33.68737 L121.767721,33.68737 C120.366974,33.68737 119.08272,34.0161874 117.915765,34.6722839 C116.748409,35.3291495 115.771059,36.22984 114.983314,37.3751246 L114.983314,50.1143956 C114.983314,50.6451184 114.786076,51.092387 114.392405,51.4550476 C113.998331,51.8177082 113.523917,52 112.969563,52 C112.415209,52 111.948025,51.8177082 111.569217,51.4550476 C111.189605,51.092387 111,50.6451184 111,50.1143956 L111,32.1371209 C111,31.6067826 111.189605,31.152207 111.569217,30.7753168 C111.948025,30.3980421 112.415209,30.2095971 112.969563,30.2095971 C113.523917,30.2095971 113.998331,30.3980421 114.392405,30.7753168 C114.786076,31.152207 114.983314,31.6067826 114.983314,32.1371209 L114.983314,33.9388865 C117.025184,31.3133467 119.316513,30 121.855293,30 L122.074223,30 C122.628175,30 123.087726,30.1819072 123.452877,30.5445678" id="Fill-6" fill="#FFFFFF"></path>
                <path d="M139.026331,48.5732468 C140.149348,48.0240346 141.077363,47.1562078 141.811612,45.9697662 C142.545036,44.7837229 142.911954,43.2790649 142.911954,41.4565887 C142.911954,39.6631861 142.545036,38.1732641 141.811612,36.9868225 C141.077363,35.8007792 140.149348,34.9401212 139.026331,34.4044502 C137.903314,33.8695758 136.727527,33.6019394 135.499794,33.6019394 C134.241965,33.6019394 133.051749,33.8695758 131.928731,34.4044502 C130.805714,34.9401212 129.884708,35.8007792 129.166126,36.9868225 C128.447131,38.1732641 128.087634,39.6631861 128.087634,41.4565887 C128.087634,43.2790649 128.447131,44.7837229 129.166126,45.9697662 C129.884708,47.1562078 130.805714,48.0240346 131.928731,48.5732468 C133.051749,49.1232554 134.241965,49.3980606 135.499794,49.3980606 C136.727527,49.3980606 137.903314,49.1232554 139.026331,48.5732468 Z M141.519314,31.4321732 C143.256197,32.3868225 144.603488,33.739342 145.562423,35.4893333 C146.520533,37.2401212 147,39.2434113 147,41.5 C147,43.7565887 146.520533,45.7602771 145.562423,47.5102684 C144.603488,49.2610563 143.256197,50.6131775 141.519314,51.5678268 C139.78243,52.5224762 137.775511,53 135.499794,53 C133.193569,53 131.17222,52.5224762 129.435337,51.5678268 C127.698453,50.6131775 126.358583,49.2610563 125.414903,47.5102684 C124.471634,45.7602771 124,43.7565887 124,41.5 C124,39.2434113 124.471634,37.2401212 125.414903,35.4893333 C126.358583,33.739342 127.698453,32.3868225 129.435337,31.4321732 C131.17222,30.4771255 133.193569,30 135.499794,30 C137.775511,30 139.78243,30.4771255 141.519314,31.4321732 L141.519314,31.4321732 Z" id="Fill-7" fill="#FFFFFF"></path>
                <path d="M152.662199,50.9100953 C151.477962,50.1843895 150.571469,49.1921685 149.94272,47.9349707 C149.313569,46.6777729 149,45.2952015 149,43.7864872 L149,31.8856044 C149,31.3552661 149.197239,30.9079976 149.591716,30.5445678 C149.986596,30.1819072 150.461579,30 151.01747,30 C151.572556,30 152.040696,30.1819072 152.420682,30.5445678 C152.800668,30.9079976 152.991064,31.3552661 152.991064,31.8856044 L152.991064,43.3672931 C152.991064,46.7762259 154.59876,48.4799231 157.815763,48.4799231 C159.277744,48.4799231 160.58596,48.1172625 161.741215,47.3904029 C162.896067,46.6643126 163.984905,45.6867057 165.008936,44.4571978 L165.008936,31.8856044 C165.008936,31.3552661 165.206175,30.9079976 165.601055,30.5445678 C165.995934,30.1819072 166.470515,30 167.026406,30 C167.581492,30 168.049632,30.1819072 168.430021,30.5445678 C168.809604,30.9079976 169,31.3552661 169,31.8856044 L169,49.8624945 C169,50.393602 168.809604,50.8474084 168.430021,51.2246832 C168.049632,51.6015733 167.581492,51.7904029 167.026406,51.7904029 C166.470515,51.7904029 165.995934,51.6015733 165.601055,51.2246832 C165.206175,50.8474084 165.008936,50.393602 165.008936,49.8624945 L165.008936,48.1445678 C163.897154,49.3179268 162.698426,50.2543834 161.41235,50.9523993 C160.125468,51.6504152 158.60512,52 156.850904,52 C155.242402,52 153.846436,51.6365702 152.662199,50.9100953" id="Fill-8" fill="#FFFFFF"></path>
                <path d="M180.093505,34.6110787 C178.914926,35.208774 177.874156,36.0030268 176.972395,36.9934359 L176.972395,46.1722704 C177.874156,47.1630807 178.914926,47.9573335 180.093505,48.5542265 C181.272083,49.1519218 182.530382,49.4503683 183.869203,49.4503683 C186.022452,49.4503683 187.754266,48.7660273 189.063842,47.3961418 C190.373418,46.0266574 191.028006,44.089162 191.028006,41.5828532 C191.028006,39.0769455 190.373418,37.1394501 189.063842,35.7695646 C187.754266,34.4000802 186.022452,33.7149369 183.869203,33.7149369 C182.530382,33.7149369 181.272083,34.0141857 180.093505,34.6110787 Z M176.972395,49.8438845 L176.972395,60.9894975 C176.972395,61.5719495 176.782909,62.0529137 176.405139,62.4319889 C176.026567,62.8102618 175.546243,63 174.964565,63 C174.41133,63 173.945427,62.8034425 173.567657,62.4099263 C173.189085,62.0168113 173,61.5426665 173,60.9894975 L173,32.1853986 C173,31.6322296 173.189085,31.1657064 173.567657,30.7866312 C173.945427,30.4083583 174.41133,30.2186201 174.964565,30.2186201 C175.516998,30.2186201 175.990112,30.4083583 176.383105,30.7866312 C176.776098,31.1657064 176.972395,31.6322296 176.972395,32.1853986 L176.972395,33.3218219 C179.0964,31.1075414 181.584555,30 184.436459,30 C186.240782,30 187.950562,30.4589016 189.565799,31.3767048 C191.180636,32.2945081 192.490213,33.6351105 193.494128,35.398111 C194.498043,37.1611115 195,39.2225585 195,41.5828532 C195,43.9427467 194.498043,46.004996 193.494128,47.7675954 C192.490213,49.530997 191.180636,50.8707972 189.565799,51.7886004 C187.950562,52.7068048 186.240782,53.1657064 184.436459,53.1657064 C181.584555,53.1657064 179.0964,52.0585661 176.972395,49.8438845 L176.972395,49.8438845 Z" id="Fill-9" fill="#FFFFFF"></path>
                <path d="M216.330792,47.0571947 C217.521965,46.1976964 218.117552,44.980041 218.117552,43.4042285 C218.117552,40.1378195 215.514542,38.5044178 210.308928,38.5044178 L202.014846,38.5044178 L202.014846,48.3466393 L210.264795,48.3466393 C213.117214,48.3466393 215.139618,47.9170874 216.330792,47.0571947 Z M214.74283,26.856816 C213.60996,26.0549069 212.058438,25.6533607 210.088265,25.6533607 L202.014846,25.6533607 L202.014846,34.980041 L209.338417,34.980041 C211.955598,34.980041 213.794183,34.5500947 214.852959,33.6905964 C215.911735,32.8310981 216.44092,31.6276428 216.44092,30.0802304 C216.44092,28.7339855 215.874485,27.659514 214.74283,26.856816 Z M220.301505,39.0203534 C221.43316,40.2238088 222,41.7424266 222,43.5758126 C222,46.2126854 221.087793,48.275639 219.264593,49.7650678 C217.440583,51.2552856 214.573183,52 210.661988,52 L199.985559,52 C199.426412,52 198.95553,51.8138214 198.573723,51.4410697 C198.191106,51.069107 198,50.610366 198,50.0660303 L198,23.9773588 C198,23.4334175 198.191106,22.9671821 198.573723,22.5802304 C198.95553,22.1936731 199.426412,22 199.985559,22 L210.396788,22 C213.543964,22 215.977731,22.7025087 217.698495,24.1059482 C219.418854,25.5101767 220.279236,27.4015462 220.279236,29.7792679 C220.279236,31.4414642 219.874755,32.8243926 219.066199,33.9268697 C218.256832,35.0305301 217.21992,35.8541338 215.955867,36.3984695 C217.720764,36.9431997 219.168635,37.8168981 220.301505,39.0203534 L220.301505,39.0203534 Z" id="Fill-10" fill="#FFFFFF"></path>
                <path d="M242.870454,32.7717722 L231.049559,61.6359198 C230.645025,62.5449028 230.039019,63 229.231143,63 C228.711369,63 228.271071,62.8089965 227.910249,62.4282008 C227.549029,62.0465976 227.369016,61.5919042 227.369016,61.0641206 C227.369016,60.8286976 227.41233,60.5944861 227.498959,60.3598708 L230.313609,53.0120899 L222.173258,32.8598035 C222.05762,32.5670391 222,32.2876005 222,32.0239106 C222,31.4670525 222.187564,30.9897456 222.562692,30.5940089 C222.937422,30.1978684 223.399974,30 223.948359,30 C224.352099,30 224.720471,30.1175096 225.052681,30.3517211 C225.384097,30.5871441 225.622128,30.8799085 225.766775,31.2320334 L232.435227,48.0399408 L239.233225,31.3196608 C239.607955,30.4397523 240.213961,30 241.051641,30 C241.599629,30 242.061783,30.1978684 242.437308,30.5940089 C242.812039,30.9897456 243,31.4670525 243,32.0239106 C243,32.2876005 242.957083,32.5375607 242.870454,32.7717722" id="Fill-11" fill="#FFFFFF"></path>
            </g>
        </g>
    </g>
</svg>