<?xml version="1.0" encoding="utf-8"?>
<!-- Generator: Adobe Illustrator 24.0.3, SVG Export Plug-In . SVG Version: 6.00 Build 0)  -->
<svg version="1.1" id="Layer_1" xmlns="http://www.w3.org/2000/svg" xmlns:xlink="http://www.w3.org/1999/xlink" x="0px" y="0px"
	 viewBox="0 0 600 400" style="enable-background:new 0 0 600 400;" xml:space="preserve">
<style type="text/css">
	.st0{fill:#FFFFFF;}
	.st1{fill:url(#SVGID_1_);}
	.st2{fill:#00000A;}
	.st3{fill:url(#SVGID_2_);}
	.st4{fill:url(#SVGID_3_);}
	.st5{fill:url(#SVGID_4_);}
	.st6{fill:url(#SVGID_5_);}
	.st7{fill:#373737;}
	.st8{fill:url(#SVGID_6_);}
</style>
<g>
	<linearGradient id="SVGID_1_" gradientUnits="userSpaceOnUse" x1="170.7273" y1="65.3426" x2="422.5109" y2="106.5435">
		<stop  offset="0" style="stop-color:#EE3331"/>
		<stop  offset="0.2001" style="stop-color:#EC8530"/>
		<stop  offset="0.3214" style="stop-color:#ECAC2B"/>
		<stop  offset="0.6556" style="stop-color:#00AF6F"/>
		<stop  offset="0.9989" style="stop-color:#4B81C2"/>
	</linearGradient>
	<path class="st1" d="M326.7,127.8l61.8-35.7c0.6-0.3,1-0.7,1.4-1.1c0.5-0.3,0.9-0.7,1.4-1.1c0.8-1.3,1-2.6,1-3.5
		c0-1.4-0.4-4-3.2-5.6l-51-29.4l-10.8-6.2c-7.6-4.4-10.3-14.2-5.9-21.9c4.4-7.7,14.2-10.3,21.9-5.9l20.5,11.8L403,52
		c1.4,0.8,2.8,1.8,4.1,2.8c10.5,7.2,16.6,18.8,16.6,31.7c0,13.9-7.2,26.4-19.2,33.3l-61.8,35.7c-2.5,1.5-5.3,2.1-8,2.1
		c-5.5,0-10.9-2.9-13.9-8C316.4,142,319.1,132.2,326.7,127.8z M327.8,145.7c1.4,2.5,4.1,4,6.9,4c1.4,0,2.7-0.4,4-1.1l61.8-35.7
		c9.5-5.5,15.2-15.4,15.2-26.4c0-5.6-1.5-10.9-4.2-15.5c-1.6,8.2-5.5,15.9-11.7,22c-1.5,1.5-3.2,2.9-4.9,4.2
		c-0.7,0.7-1.5,1.2-2.4,1.7c0,0-0.1,0-0.1,0l-61.8,35.7C326.9,137,325.6,141.9,327.8,145.7z M195.5,119.9
		c-12.1-6.9-19.2-19.4-19.2-33.3c0-13.9,7.2-26.4,19.2-33.3l61.8-35.7c2.5-1.5,5.3-2.1,8-2.1c5.5,0,10.9,2.9,13.9,8
		c4.4,7.7,1.8,17.4-5.9,21.9l-61.8,35.7c-0.6,0.3-1,0.7-1.4,1.1c-1.6,1.5-1.8,3.4-1.8,4.6c0,1.4,0.4,4,3.2,5.6l51,29.4l10.8,6.2
		c7.6,4.4,10.3,14.2,5.9,21.9c-4.4,7.7-14.2,10.3-21.9,5.9l-20.5-11.8l-39.3-22.7L195.5,119.9z M269.3,38.3
		c3.8-2.2,5.1-7.1,2.9-10.9c-1.4-2.5-4.1-4-6.9-4c-1.4,0-2.7,0.4-4,1.1l-61.8,35.7c-9.5,5.5-15.2,15.4-15.2,26.4
		c0,5.6,1.5,10.9,4.2,15.5c1.6-8.2,5.5-15.9,11.7-22c1.5-1.5,3.2-2.9,4.9-4.2c0.7-0.7,1.5-1.2,2.4-1.7c0,0,0.1,0,0.1,0L269.3,38.3z"
		/>
	<g>
		<g>
			<path class="st2" d="M189.1,201.9c4.3,0.9,6.3,2.5,6.3,5.5c0,3.3-2.8,5.5-6.6,5.5c-3.1,0-5.6-1-7.9-3.1l1.4-1.6
				c2,1.8,4,2.7,6.6,2.7c2.6,0,4.3-1.4,4.3-3.3c0-1.8-1-2.8-5-3.7c-4.5-1-6.5-2.4-6.5-5.6c0-3.1,2.7-5.3,6.4-5.3
				c2.8,0,4.8,0.8,6.8,2.4l-1.3,1.7c-1.8-1.5-3.6-2.1-5.6-2.1c-2.5,0-4.1,1.4-4.1,3.2C183.9,200,184.9,201,189.1,201.9z"/>
			<path class="st2" d="M221.8,211.6l-1.5,1.6l-2.5-2.3c-1.6,1.3-3.7,2.1-6.1,2.1c-5.9,0-9.8-4.6-9.8-10s4-10,9.9-10s9.8,4.6,9.8,10
				c0,2.4-0.8,4.8-2.3,6.5L221.8,211.6z M212.5,206.4l1.5-1.6l3.6,3.2c1.1-1.4,1.7-3.1,1.7-5c0-4.4-3.2-8-7.6-8
				c-4.4,0-7.6,3.5-7.6,8s3.2,8,7.6,8c1.7,0,3.3-0.6,4.5-1.5L212.5,206.4z"/>
			<path class="st2" d="M228.9,193.3h2.2v17.3H242v2h-13.1V193.3z"/>
			<path class="st2" d="M255.7,201.9c4.3,0.9,6.3,2.5,6.3,5.5c0,3.3-2.8,5.5-6.6,5.5c-3.1,0-5.6-1-7.9-3.1l1.4-1.6
				c2,1.8,4,2.7,6.6,2.7c2.6,0,4.3-1.4,4.3-3.3c0-1.8-1-2.8-5-3.7c-4.5-1-6.5-2.4-6.5-5.6c0-3.1,2.7-5.3,6.4-5.3
				c2.8,0,4.8,0.8,6.8,2.4l-1.3,1.7c-1.8-1.5-3.6-2.1-5.6-2.1c-2.5,0-4.1,1.4-4.1,3.2C250.5,200,251.5,201,255.7,201.9z"/>
			<path class="st2" d="M286.8,212.6h-2.4l-2.3-5.1h-10.5l-2.3,5.1h-2.2l8.8-19.5h2L286.8,212.6z M277,195.7l-4.4,9.9h8.8L277,195.7
				z"/>
			<path class="st2" d="M298.3,212.6H296v-17.3h-6.5v-2h15.2v2h-6.5V212.6z"/>
			<path class="st2" d="M327.4,204.3c0,5.6-3.2,8.6-8.1,8.6c-4.8,0-8-2.9-8-8.4v-11.3h2.2v11.1c0,4.2,2.2,6.5,5.9,6.5
				c3.6,0,5.8-2.2,5.8-6.4v-11.3h2.2V204.3z"/>
			<path class="st2" d="M348.7,212.6l-5.6-7.5h-5.5v7.5h-2.2v-19.4h8.3c4.3,0,7,2.3,7,5.8c0,3.2-2.2,5.1-5.3,5.7l5.9,7.9H348.7z
				 M343.5,195.3h-6v7.9h5.9c2.9,0,5-1.5,5-4C348.5,196.7,346.6,195.3,343.5,195.3z"/>
			<path class="st2" d="M364.8,212.6h-6.7v-19.4h6.7c6.1,0,10.3,4.2,10.3,9.7C375.1,208.4,370.9,212.6,364.8,212.6z M364.8,195.3
				h-4.5v15.3h4.5c4.9,0,8-3.3,8-7.6S369.7,195.3,364.8,195.3z"/>
			<path class="st2" d="M399.3,212.6h-2.4l-2.3-5.1h-10.5l-2.3,5.1h-2.2l8.8-19.5h2L399.3,212.6z M389.4,195.7l-4.4,9.9h8.8
				L389.4,195.7z"/>
			<path class="st2" d="M411.1,212.6h-2.2V205l-8-11.7h2.7l6.5,9.7l6.6-9.7h2.5l-8,11.7V212.6z"/>
		</g>
	</g>
</g>
<g>
	<path class="st7" d="M165.3,356.1h-5v14h-2.1v-14h-5v-1.7h12.1V356.1z"/>
	<path class="st7" d="M169.3,359.9c0.9-1.1,2-1.6,3.4-1.6c2.5,0,3.7,1.4,3.7,4.2v7.7h-2v-7.7c0-0.8-0.2-1.5-0.6-1.9
		c-0.4-0.4-1-0.6-1.8-0.6c-0.6,0-1.2,0.2-1.7,0.5c-0.5,0.3-0.9,0.8-1.1,1.4v8.3h-2v-16.5h2V359.9z"/>
	<path class="st7" d="M179.4,355.4c0-0.3,0.1-0.6,0.3-0.8c0.2-0.2,0.5-0.3,0.9-0.3s0.7,0.1,0.9,0.3c0.2,0.2,0.3,0.5,0.3,0.8
		s-0.1,0.6-0.3,0.8c-0.2,0.2-0.5,0.3-0.9,0.3s-0.7-0.1-0.9-0.3C179.5,356,179.4,355.7,179.4,355.4z M181.5,370.1h-2v-11.6h2V370.1z"
		/>
	<path class="st7" d="M191.5,367c0-0.5-0.2-1-0.6-1.3c-0.4-0.3-1.1-0.6-2.1-0.8c-1-0.2-1.8-0.5-2.4-0.8s-1-0.7-1.3-1.1
		c-0.3-0.4-0.4-0.9-0.4-1.5c0-1,0.4-1.8,1.2-2.4c0.8-0.7,1.8-1,3.1-1c1.3,0,2.4,0.3,3.2,1c0.8,0.7,1.2,1.6,1.2,2.6h-2
		c0-0.5-0.2-1-0.7-1.4c-0.5-0.4-1-0.6-1.7-0.6c-0.7,0-1.3,0.2-1.7,0.5c-0.4,0.3-0.6,0.7-0.6,1.2c0,0.5,0.2,0.8,0.6,1.1
		c0.4,0.2,1.1,0.5,2.1,0.7c1,0.2,1.8,0.5,2.4,0.8c0.6,0.3,1.1,0.7,1.4,1.1c0.3,0.4,0.4,1,0.4,1.6c0,1-0.4,1.9-1.2,2.5
		c-0.8,0.6-1.9,0.9-3.2,0.9c-0.9,0-1.8-0.2-2.5-0.5c-0.7-0.3-1.3-0.8-1.7-1.4c-0.4-0.6-0.6-1.2-0.6-1.9h2c0,0.7,0.3,1.2,0.8,1.6
		c0.5,0.4,1.2,0.6,2,0.6c0.8,0,1.4-0.2,1.8-0.5C191.3,367.9,191.5,367.5,191.5,367z"/>
	<path class="st7" d="M208.3,367c0-0.5-0.2-1-0.6-1.3c-0.4-0.3-1.1-0.6-2.1-0.8c-1-0.2-1.8-0.5-2.4-0.8s-1-0.7-1.3-1.1
		c-0.3-0.4-0.4-0.9-0.4-1.5c0-1,0.4-1.8,1.2-2.4c0.8-0.7,1.8-1,3.1-1c1.3,0,2.4,0.3,3.2,1c0.8,0.7,1.2,1.6,1.2,2.6h-2
		c0-0.5-0.2-1-0.7-1.4c-0.5-0.4-1-0.6-1.7-0.6c-0.7,0-1.3,0.2-1.7,0.5c-0.4,0.3-0.6,0.7-0.6,1.2c0,0.5,0.2,0.8,0.6,1.1
		c0.4,0.2,1.1,0.5,2.1,0.7c1,0.2,1.8,0.5,2.4,0.8c0.6,0.3,1.1,0.7,1.4,1.1c0.3,0.4,0.4,1,0.4,1.6c0,1-0.4,1.9-1.2,2.5
		c-0.8,0.6-1.9,0.9-3.2,0.9c-0.9,0-1.8-0.2-2.5-0.5c-0.7-0.3-1.3-0.8-1.7-1.4c-0.4-0.6-0.6-1.2-0.6-1.9h2c0,0.7,0.3,1.2,0.8,1.6
		c0.5,0.4,1.2,0.6,2,0.6c0.8,0,1.4-0.2,1.8-0.5C208.1,367.9,208.3,367.5,208.3,367z"/>
	<path class="st7" d="M212.9,355.4c0-0.3,0.1-0.6,0.3-0.8c0.2-0.2,0.5-0.3,0.9-0.3s0.7,0.1,0.9,0.3c0.2,0.2,0.3,0.5,0.3,0.8
		s-0.1,0.6-0.3,0.8c-0.2,0.2-0.5,0.3-0.9,0.3s-0.7-0.1-0.9-0.3C213,356,212.9,355.7,212.9,355.4z M215,370.1h-2v-11.6h2V370.1z"/>
	<path class="st7" d="M220.9,355.6v2.8h2.2v1.5h-2.2v7.2c0,0.5,0.1,0.8,0.3,1s0.5,0.3,1,0.3c0.2,0,0.5,0,0.9-0.1v1.6
		c-0.5,0.1-1,0.2-1.5,0.2c-0.9,0-1.6-0.3-2-0.8s-0.7-1.3-0.7-2.3V360h-2.1v-1.5h2.1v-2.8H220.9z"/>
	<path class="st7" d="M230.2,370.3c-1.6,0-2.9-0.5-3.8-1.6c-1-1-1.5-2.4-1.5-4.2v-0.4c0-1.2,0.2-2.2,0.7-3.1
		c0.4-0.9,1.1-1.6,1.8-2.1c0.8-0.5,1.6-0.8,2.6-0.8c1.5,0,2.7,0.5,3.5,1.5c0.8,1,1.3,2.4,1.3,4.3v0.8h-7.9c0,1.1,0.4,2.1,1,2.8
		c0.6,0.7,1.5,1.1,2.4,1.1c0.7,0,1.3-0.1,1.8-0.4c0.5-0.3,0.9-0.7,1.3-1.1l1.2,0.9C233.6,369.5,232.2,370.3,230.2,370.3z M230,359.9
		c-0.8,0-1.5,0.3-2,0.9c-0.5,0.6-0.9,1.4-1,2.5h5.8V363c-0.1-1-0.3-1.8-0.8-2.3C231.5,360.1,230.8,359.9,230,359.9z"/>
	<path class="st7" d="M242.5,355.4c0-0.3,0.1-0.6,0.3-0.8c0.2-0.2,0.5-0.3,0.9-0.3s0.7,0.1,0.9,0.3c0.2,0.2,0.3,0.5,0.3,0.8
		s-0.1,0.6-0.3,0.8c-0.2,0.2-0.5,0.3-0.9,0.3s-0.7-0.1-0.9-0.3C242.6,356,242.5,355.7,242.5,355.4z M244.6,370.1h-2v-11.6h2V370.1z"
		/>
	<path class="st7" d="M254.6,367c0-0.5-0.2-1-0.6-1.3c-0.4-0.3-1.1-0.6-2.1-0.8c-1-0.2-1.8-0.5-2.4-0.8s-1-0.7-1.3-1.1
		c-0.3-0.4-0.4-0.9-0.4-1.5c0-1,0.4-1.8,1.2-2.4c0.8-0.7,1.8-1,3.1-1c1.3,0,2.4,0.3,3.2,1c0.8,0.7,1.2,1.6,1.2,2.6h-2
		c0-0.5-0.2-1-0.7-1.4c-0.5-0.4-1-0.6-1.7-0.6c-0.7,0-1.3,0.2-1.7,0.5c-0.4,0.3-0.6,0.7-0.6,1.2c0,0.5,0.2,0.8,0.6,1.1
		c0.4,0.2,1.1,0.5,2.1,0.7c1,0.2,1.8,0.5,2.4,0.8c0.6,0.3,1.1,0.7,1.4,1.1c0.3,0.4,0.4,1,0.4,1.6c0,1-0.4,1.9-1.2,2.5
		c-0.8,0.6-1.9,0.9-3.2,0.9c-0.9,0-1.8-0.2-2.5-0.5c-0.7-0.3-1.3-0.8-1.7-1.4c-0.4-0.6-0.6-1.2-0.6-1.9h2c0,0.7,0.3,1.2,0.8,1.6
		c0.5,0.4,1.2,0.6,2,0.6c0.8,0,1.4-0.2,1.8-0.5C254.4,367.9,254.6,367.5,254.6,367z"/>
	<path class="st7" d="M271.8,368.9c-0.8,0.9-1.9,1.4-3.4,1.4c-1.2,0-2.2-0.4-2.8-1.1c-0.6-0.7-1-1.8-1-3.2v-7.6h2v7.5
		c0,1.8,0.7,2.6,2.1,2.6c1.5,0,2.5-0.6,3-1.7v-8.5h2v11.6h-1.9L271.8,368.9z"/>
	<path class="st7" d="M278.6,358.4l0.1,1.5c0.9-1.1,2-1.7,3.5-1.7c2.5,0,3.7,1.4,3.7,4.2v7.7h-2v-7.7c0-0.8-0.2-1.5-0.6-1.9
		c-0.4-0.4-1-0.6-1.8-0.6c-0.6,0-1.2,0.2-1.7,0.5c-0.5,0.3-0.9,0.8-1.1,1.4v8.3h-2v-11.6H278.6z"/>
	<path class="st7" d="M288.4,364.2c0-1.8,0.4-3.2,1.3-4.3c0.8-1.1,2-1.6,3.3-1.6c1.4,0,2.4,0.5,3.2,1.4v-6.1h2v16.5h-1.8l-0.1-1.2
		c-0.8,1-1.9,1.5-3.3,1.5c-1.3,0-2.4-0.6-3.3-1.7c-0.8-1.1-1.3-2.5-1.3-4.3V364.2z M290.4,364.4c0,1.3,0.3,2.3,0.8,3.1
		c0.5,0.7,1.3,1.1,2.3,1.1c1.3,0,2.2-0.6,2.8-1.7v-5.3c-0.6-1.1-1.5-1.6-2.7-1.6c-1,0-1.7,0.4-2.3,1.1
		C290.7,361.8,290.4,362.9,290.4,364.4z"/>
	<path class="st7" d="M306.1,370.3c-1.6,0-2.9-0.5-3.8-1.6c-1-1-1.5-2.4-1.5-4.2v-0.4c0-1.2,0.2-2.2,0.7-3.1
		c0.4-0.9,1.1-1.6,1.8-2.1c0.8-0.5,1.6-0.8,2.6-0.8c1.5,0,2.7,0.5,3.5,1.5c0.8,1,1.3,2.4,1.3,4.3v0.8h-7.9c0,1.1,0.4,2.1,1,2.8
		c0.6,0.7,1.5,1.1,2.4,1.1c0.7,0,1.3-0.1,1.8-0.4c0.5-0.3,0.9-0.7,1.3-1.1l1.2,0.9C309.5,369.5,308.1,370.3,306.1,370.3z
		 M305.9,359.9c-0.8,0-1.5,0.3-2,0.9c-0.5,0.6-0.9,1.4-1,2.5h5.8V363c-0.1-1-0.3-1.8-0.8-2.3C307.4,360.1,306.7,359.9,305.9,359.9z"
		/>
	<path class="st7" d="M318.6,360.2c-0.3,0-0.6-0.1-1-0.1c-1.3,0-2.2,0.6-2.7,1.7v8.2h-2v-11.6h1.9l0,1.3c0.7-1,1.6-1.6,2.8-1.6
		c0.4,0,0.7,0.1,0.9,0.2V360.2z"/>
	<path class="st7" d="M330.5,368.7c0.7,0,1.3-0.2,1.9-0.6c0.5-0.4,0.8-1,0.9-1.6h1.9c0,0.7-0.3,1.3-0.7,1.9c-0.4,0.6-1,1.1-1.7,1.4
		c-0.7,0.4-1.5,0.5-2.2,0.5c-1.6,0-2.8-0.5-3.8-1.6c-0.9-1.1-1.4-2.5-1.4-4.3V364c0-1.1,0.2-2.1,0.6-3c0.4-0.9,1-1.6,1.8-2.1
		c0.8-0.5,1.7-0.7,2.8-0.7c1.3,0,2.4,0.4,3.2,1.2c0.9,0.8,1.3,1.8,1.4,3h-1.9c-0.1-0.8-0.3-1.4-0.9-1.9c-0.5-0.5-1.1-0.7-1.9-0.7
		c-1,0-1.8,0.4-2.3,1.1c-0.6,0.7-0.8,1.8-0.8,3.2v0.4c0,1.3,0.3,2.4,0.8,3.1C328.7,368.3,329.5,368.7,330.5,368.7z"/>
	<path class="st7" d="M336.8,364.2c0-1.1,0.2-2.2,0.7-3.1c0.4-0.9,1.1-1.6,1.9-2.1c0.8-0.5,1.7-0.7,2.7-0.7c1.6,0,2.9,0.5,3.8,1.6
		s1.5,2.6,1.5,4.4v0.1c0,1.1-0.2,2.1-0.6,3c-0.4,0.9-1.1,1.6-1.9,2.1c-0.8,0.5-1.7,0.8-2.8,0.8c-1.6,0-2.9-0.5-3.8-1.6
		s-1.5-2.5-1.5-4.4V364.2z M338.8,364.4c0,1.3,0.3,2.3,0.9,3.1c0.6,0.8,1.4,1.2,2.4,1.2c1,0,1.8-0.4,2.4-1.2
		c0.6-0.8,0.9-1.9,0.9-3.3c0-1.3-0.3-2.3-0.9-3.1c-0.6-0.8-1.4-1.2-2.4-1.2c-1,0-1.8,0.4-2.4,1.2
		C339.1,361.8,338.8,362.9,338.8,364.4z"/>
	<path class="st7" d="M351.8,358.4l0.1,1.5c0.9-1.1,2-1.7,3.5-1.7c2.5,0,3.7,1.4,3.7,4.2v7.7h-2v-7.7c0-0.8-0.2-1.5-0.6-1.9
		c-0.4-0.4-1-0.6-1.8-0.6c-0.6,0-1.2,0.2-1.7,0.5c-0.5,0.3-0.9,0.8-1.1,1.4v8.3h-2v-11.6H351.8z"/>
	<path class="st7" d="M368.8,367c0-0.5-0.2-1-0.6-1.3c-0.4-0.3-1.1-0.6-2.1-0.8c-1-0.2-1.8-0.5-2.4-0.8s-1-0.7-1.3-1.1
		c-0.3-0.4-0.4-0.9-0.4-1.5c0-1,0.4-1.8,1.2-2.4c0.8-0.7,1.8-1,3.1-1c1.3,0,2.4,0.3,3.2,1c0.8,0.7,1.2,1.6,1.2,2.6h-2
		c0-0.5-0.2-1-0.7-1.4c-0.5-0.4-1-0.6-1.7-0.6c-0.7,0-1.3,0.2-1.7,0.5c-0.4,0.3-0.6,0.7-0.6,1.2c0,0.5,0.2,0.8,0.6,1.1
		c0.4,0.2,1.1,0.5,2.1,0.7c1,0.2,1.8,0.5,2.4,0.8c0.6,0.3,1.1,0.7,1.4,1.1c0.3,0.4,0.4,1,0.4,1.6c0,1-0.4,1.9-1.2,2.5
		c-0.8,0.6-1.9,0.9-3.2,0.9c-0.9,0-1.8-0.2-2.5-0.5c-0.7-0.3-1.3-0.8-1.7-1.4c-0.4-0.6-0.6-1.2-0.6-1.9h2c0,0.7,0.3,1.2,0.8,1.6
		c0.5,0.4,1.2,0.6,2,0.6c0.8,0,1.4-0.2,1.8-0.5C368.6,367.9,368.8,367.5,368.8,367z"/>
	<path class="st7" d="M376.1,355.6v2.8h2.2v1.5h-2.2v7.2c0,0.5,0.1,0.8,0.3,1s0.5,0.3,1,0.3c0.2,0,0.5,0,0.9-0.1v1.6
		c-0.5,0.1-1,0.2-1.5,0.2c-0.9,0-1.6-0.3-2-0.8s-0.7-1.3-0.7-2.3V360H372v-1.5h2.1v-2.8H376.1z"/>
	<path class="st7" d="M386.2,360.2c-0.3,0-0.6-0.1-1-0.1c-1.3,0-2.2,0.6-2.7,1.7v8.2h-2v-11.6h1.9l0,1.3c0.7-1,1.6-1.6,2.8-1.6
		c0.4,0,0.7,0.1,0.9,0.2V360.2z"/>
	<path class="st7" d="M395.2,368.9c-0.8,0.9-1.9,1.4-3.4,1.4c-1.2,0-2.2-0.4-2.8-1.1c-0.6-0.7-1-1.8-1-3.2v-7.6h2v7.5
		c0,1.8,0.7,2.6,2.1,2.6c1.5,0,2.5-0.6,3-1.7v-8.5h2v11.6h-1.9L395.2,368.9z"/>
	<path class="st7" d="M404.8,368.7c0.7,0,1.3-0.2,1.9-0.6c0.5-0.4,0.8-1,0.9-1.6h1.9c0,0.7-0.3,1.3-0.7,1.9c-0.4,0.6-1,1.1-1.7,1.4
		c-0.7,0.4-1.5,0.5-2.2,0.5c-1.6,0-2.8-0.5-3.8-1.6c-0.9-1.1-1.4-2.5-1.4-4.3V364c0-1.1,0.2-2.1,0.6-3c0.4-0.9,1-1.6,1.8-2.1
		c0.8-0.5,1.7-0.7,2.8-0.7c1.3,0,2.4,0.4,3.2,1.2c0.9,0.8,1.3,1.8,1.4,3h-1.9c-0.1-0.8-0.3-1.4-0.9-1.9c-0.5-0.5-1.1-0.7-1.9-0.7
		c-1,0-1.8,0.4-2.3,1.1c-0.6,0.7-0.8,1.8-0.8,3.2v0.4c0,1.3,0.3,2.4,0.8,3.1C403,368.3,403.8,368.7,404.8,368.7z"/>
	<path class="st7" d="M414.4,355.6v2.8h2.2v1.5h-2.2v7.2c0,0.5,0.1,0.8,0.3,1s0.5,0.3,1,0.3c0.2,0,0.5,0,0.9-0.1v1.6
		c-0.5,0.1-1,0.2-1.5,0.2c-0.9,0-1.6-0.3-2-0.8s-0.7-1.3-0.7-2.3V360h-2.1v-1.5h2.1v-2.8H414.4z"/>
	<path class="st7" d="M418.9,355.4c0-0.3,0.1-0.6,0.3-0.8c0.2-0.2,0.5-0.3,0.9-0.3s0.7,0.1,0.9,0.3c0.2,0.2,0.3,0.5,0.3,0.8
		s-0.1,0.6-0.3,0.8c-0.2,0.2-0.5,0.3-0.9,0.3s-0.7-0.1-0.9-0.3C418.9,356,418.9,355.7,418.9,355.4z M421,370.1h-2v-11.6h2V370.1z"/>
	<path class="st7" d="M423.7,364.2c0-1.1,0.2-2.2,0.7-3.1c0.4-0.9,1.1-1.6,1.9-2.1c0.8-0.5,1.7-0.7,2.7-0.7c1.6,0,2.9,0.5,3.8,1.6
		s1.5,2.6,1.5,4.4v0.1c0,1.1-0.2,2.1-0.6,3c-0.4,0.9-1.1,1.6-1.9,2.1c-0.8,0.5-1.7,0.8-2.8,0.8c-1.6,0-2.9-0.5-3.8-1.6
		s-1.5-2.5-1.5-4.4V364.2z M425.7,364.4c0,1.3,0.3,2.3,0.9,3.1c0.6,0.8,1.4,1.2,2.4,1.2c1,0,1.8-0.4,2.4-1.2
		c0.6-0.8,0.9-1.9,0.9-3.3c0-1.3-0.3-2.3-0.9-3.1c-0.6-0.8-1.4-1.2-2.4-1.2c-1,0-1.8,0.4-2.4,1.2C426,361.8,425.7,362.9,425.7,364.4
		z"/>
	<path class="st7" d="M438.6,358.4l0.1,1.5c0.9-1.1,2-1.7,3.5-1.7c2.5,0,3.7,1.4,3.7,4.2v7.7h-2v-7.7c0-0.8-0.2-1.5-0.6-1.9
		c-0.4-0.4-1-0.6-1.8-0.6c-0.6,0-1.2,0.2-1.7,0.5c-0.5,0.3-0.9,0.8-1.1,1.4v8.3h-2v-11.6H438.6z"/>
</g>
<linearGradient id="SVGID_2_" gradientUnits="userSpaceOnUse" x1="232.8581" y1="310.2108" x2="365.8419" y2="280.3826">
	<stop  offset="0" style="stop-color:#EE3331"/>
	<stop  offset="0.2001" style="stop-color:#EC8530"/>
	<stop  offset="0.3214" style="stop-color:#ECAC2B"/>
	<stop  offset="0.6556" style="stop-color:#00AF6F"/>
	<stop  offset="0.9989" style="stop-color:#4B81C2"/>
</linearGradient>
<path class="st3" d="M347,273.2l-16.9,16.9l-18-4.8l-4.8-18l16.9-16.9c-10.8-2.9-22.7-0.1-31.2,8.4c-8.8,8.8-11.4,21.4-7.9,32.5
	L256.3,320c-5.8,5.8-5.8,15.3,0,21.1l0,0c5.8,5.8,15.3,5.8,21.1,0l28.7-28.7c11.1,3.5,23.7,0.9,32.5-7.9
	C347.1,295.9,349.9,283.9,347,273.2z M273.5,334.9c-3.1,3.1-8,3.1-11.1,0c-3.1-3.1-3.1-8,0-11.1l25.5-25.5c1.3,2.2,3,4.3,4.9,6.2
	c1.9,1.9,4,3.5,6.2,4.9L273.5,334.9z"/>
</svg>
